<mxfile host="app.diagrams.net" modified="2024-03-21T06:45:01.477Z" agent="Mozilla/5.0 (Windows NT 10.0; Win64; x64) AppleWebKit/537.36 (KHTML, like Gecko) Chrome/122.0.0.0 Safari/537.36" etag="MSkAq0HvkGNjf6Ff6Ohr" version="24.0.7" type="device">
  <diagram name="Страница — 1" id="-snAYYRtme6xk0AwiiUT">
    <mxGraphModel dx="2227" dy="1876" grid="1" gridSize="10" guides="1" tooltips="1" connect="1" arrows="1" fold="1" page="1" pageScale="1" pageWidth="827" pageHeight="1169" math="0" shadow="0">
      <root>
        <mxCell id="0" />
        <mxCell id="1" parent="0" />
        <mxCell id="A_heObpt1fbt8PdxzLDg-1" value="User&lt;div&gt;&lt;br/&gt;&lt;/div&gt;" style="shape=umlActor;verticalLabelPosition=bottom;verticalAlign=top;html=1;outlineConnect=0;" parent="1" vertex="1">
          <mxGeometry x="210" y="270" width="30" height="60" as="geometry" />
        </mxCell>
        <mxCell id="A_heObpt1fbt8PdxzLDg-2" value="Admin&lt;div&gt;&lt;br/&gt;&lt;/div&gt;" style="shape=umlActor;verticalLabelPosition=bottom;verticalAlign=top;html=1;outlineConnect=0;" parent="1" vertex="1">
          <mxGeometry x="660" y="270" width="30" height="60" as="geometry" />
        </mxCell>
        <mxCell id="A_heObpt1fbt8PdxzLDg-3" value="Guest&lt;div&gt;&lt;br/&gt;&lt;/div&gt;" style="shape=umlActor;verticalLabelPosition=bottom;verticalAlign=top;html=1;outlineConnect=0;" parent="1" vertex="1">
          <mxGeometry x="325" y="-30" width="30" height="60" as="geometry" />
        </mxCell>
        <mxCell id="A_heObpt1fbt8PdxzLDg-5" value="Добавление&lt;br&gt;&amp;nbsp;товаров" style="ellipse;whiteSpace=wrap;html=1;" parent="1" vertex="1">
          <mxGeometry x="625" y="180" width="100" height="60" as="geometry" />
        </mxCell>
        <mxCell id="A_heObpt1fbt8PdxzLDg-6" value="" style="endArrow=none;html=1;rounded=0;" parent="1" source="A_heObpt1fbt8PdxzLDg-2" target="A_heObpt1fbt8PdxzLDg-5" edge="1">
          <mxGeometry width="50" height="50" relative="1" as="geometry">
            <mxPoint x="540" y="300" as="sourcePoint" />
            <mxPoint x="590" y="250" as="targetPoint" />
          </mxGeometry>
        </mxCell>
        <mxCell id="A_heObpt1fbt8PdxzLDg-7" value="Ввести информацию о товаре" style="ellipse;whiteSpace=wrap;html=1;" parent="1" vertex="1">
          <mxGeometry x="630" y="60" width="90" height="60" as="geometry" />
        </mxCell>
        <mxCell id="A_heObpt1fbt8PdxzLDg-8" value="&amp;lt;&amp;lt;included&amp;gt;&amp;gt;" style="endArrow=open;endSize=12;dashed=1;html=1;rounded=0;" parent="1" source="A_heObpt1fbt8PdxzLDg-5" target="A_heObpt1fbt8PdxzLDg-7" edge="1">
          <mxGeometry x="0.0184" width="160" relative="1" as="geometry">
            <mxPoint x="550" y="170" as="sourcePoint" />
            <mxPoint x="650" y="270" as="targetPoint" />
            <mxPoint as="offset" />
          </mxGeometry>
        </mxCell>
        <mxCell id="A_heObpt1fbt8PdxzLDg-9" value="Просмотр каталога" style="ellipse;whiteSpace=wrap;html=1;" parent="1" vertex="1">
          <mxGeometry x="390" y="275" width="100" height="50" as="geometry" />
        </mxCell>
        <mxCell id="A_heObpt1fbt8PdxzLDg-10" value="" style="endArrow=none;html=1;rounded=0;" parent="1" source="A_heObpt1fbt8PdxzLDg-9" target="A_heObpt1fbt8PdxzLDg-3" edge="1">
          <mxGeometry width="50" height="50" relative="1" as="geometry">
            <mxPoint x="590" y="320" as="sourcePoint" />
            <mxPoint x="640" y="270" as="targetPoint" />
          </mxGeometry>
        </mxCell>
        <mxCell id="A_heObpt1fbt8PdxzLDg-11" value="" style="endArrow=none;html=1;rounded=0;" parent="1" source="A_heObpt1fbt8PdxzLDg-9" target="A_heObpt1fbt8PdxzLDg-2" edge="1">
          <mxGeometry width="50" height="50" relative="1" as="geometry">
            <mxPoint x="590" y="320" as="sourcePoint" />
            <mxPoint x="640" y="270" as="targetPoint" />
          </mxGeometry>
        </mxCell>
        <mxCell id="A_heObpt1fbt8PdxzLDg-12" value="" style="endArrow=none;html=1;rounded=0;" parent="1" source="A_heObpt1fbt8PdxzLDg-1" target="A_heObpt1fbt8PdxzLDg-9" edge="1">
          <mxGeometry width="50" height="50" relative="1" as="geometry">
            <mxPoint x="590" y="320" as="sourcePoint" />
            <mxPoint x="640" y="270" as="targetPoint" />
          </mxGeometry>
        </mxCell>
        <mxCell id="A_heObpt1fbt8PdxzLDg-14" value="Просмотр информации о пользователях" style="ellipse;whiteSpace=wrap;html=1;" parent="1" vertex="1">
          <mxGeometry x="827" y="390" width="110" height="70" as="geometry" />
        </mxCell>
        <mxCell id="A_heObpt1fbt8PdxzLDg-15" value="" style="endArrow=none;html=1;rounded=0;" parent="1" source="A_heObpt1fbt8PdxzLDg-14" target="A_heObpt1fbt8PdxzLDg-2" edge="1">
          <mxGeometry width="50" height="50" relative="1" as="geometry">
            <mxPoint x="570" y="400" as="sourcePoint" />
            <mxPoint x="620" y="350" as="targetPoint" />
          </mxGeometry>
        </mxCell>
        <mxCell id="A_heObpt1fbt8PdxzLDg-16" value="Изменение статусов заказов" style="ellipse;whiteSpace=wrap;html=1;" parent="1" vertex="1">
          <mxGeometry x="870" y="80" width="110" height="70" as="geometry" />
        </mxCell>
        <mxCell id="A_heObpt1fbt8PdxzLDg-18" value="Просмотр информации о заказах" style="ellipse;whiteSpace=wrap;html=1;" parent="1" vertex="1">
          <mxGeometry x="774" y="180" width="106" height="60" as="geometry" />
        </mxCell>
        <mxCell id="A_heObpt1fbt8PdxzLDg-19" value="" style="endArrow=none;html=1;rounded=0;" parent="1" source="A_heObpt1fbt8PdxzLDg-2" target="A_heObpt1fbt8PdxzLDg-18" edge="1">
          <mxGeometry width="50" height="50" relative="1" as="geometry">
            <mxPoint x="590" y="440" as="sourcePoint" />
            <mxPoint x="640" y="390" as="targetPoint" />
          </mxGeometry>
        </mxCell>
        <mxCell id="A_heObpt1fbt8PdxzLDg-20" value="&amp;lt;&amp;lt;extended&amp;gt;&amp;gt;" style="endArrow=open;endSize=12;dashed=1;html=1;rounded=0;" parent="1" source="A_heObpt1fbt8PdxzLDg-16" target="A_heObpt1fbt8PdxzLDg-18" edge="1">
          <mxGeometry x="0.0184" width="160" relative="1" as="geometry">
            <mxPoint x="645" y="130" as="sourcePoint" />
            <mxPoint x="656" y="200" as="targetPoint" />
            <mxPoint as="offset" />
          </mxGeometry>
        </mxCell>
        <mxCell id="A_heObpt1fbt8PdxzLDg-21" value="Просмотр статистики продаж" style="ellipse;whiteSpace=wrap;html=1;" parent="1" vertex="1">
          <mxGeometry x="860" y="265" width="114" height="70" as="geometry" />
        </mxCell>
        <mxCell id="A_heObpt1fbt8PdxzLDg-22" value="" style="endArrow=none;html=1;rounded=0;" parent="1" source="A_heObpt1fbt8PdxzLDg-21" target="A_heObpt1fbt8PdxzLDg-2" edge="1">
          <mxGeometry width="50" height="50" relative="1" as="geometry">
            <mxPoint x="640" y="310" as="sourcePoint" />
            <mxPoint x="770" y="320" as="targetPoint" />
          </mxGeometry>
        </mxCell>
        <mxCell id="A_heObpt1fbt8PdxzLDg-30" value="Изменение информации о товаре" style="ellipse;whiteSpace=wrap;html=1;" parent="1" vertex="1">
          <mxGeometry x="630" y="410" width="90" height="50" as="geometry" />
        </mxCell>
        <mxCell id="A_heObpt1fbt8PdxzLDg-31" value="" style="endArrow=none;html=1;rounded=0;" parent="1" source="A_heObpt1fbt8PdxzLDg-2" target="A_heObpt1fbt8PdxzLDg-30" edge="1">
          <mxGeometry width="50" height="50" relative="1" as="geometry">
            <mxPoint x="580" y="300" as="sourcePoint" />
            <mxPoint x="630" y="250" as="targetPoint" />
          </mxGeometry>
        </mxCell>
        <mxCell id="A_heObpt1fbt8PdxzLDg-33" value="Создание нового аккаунта" style="ellipse;whiteSpace=wrap;html=1;" parent="1" vertex="1">
          <mxGeometry x="420" y="-25" width="100" height="50" as="geometry" />
        </mxCell>
        <mxCell id="A_heObpt1fbt8PdxzLDg-34" value="" style="endArrow=none;html=1;rounded=0;" parent="1" source="A_heObpt1fbt8PdxzLDg-33" target="A_heObpt1fbt8PdxzLDg-3" edge="1">
          <mxGeometry width="50" height="50" relative="1" as="geometry">
            <mxPoint x="210" y="230" as="sourcePoint" />
            <mxPoint x="260" y="180" as="targetPoint" />
          </mxGeometry>
        </mxCell>
        <mxCell id="A_heObpt1fbt8PdxzLDg-35" value="&amp;lt;&amp;lt;included&amp;gt;&amp;gt;" style="endArrow=open;endSize=12;dashed=1;html=1;rounded=0;" parent="1" source="A_heObpt1fbt8PdxzLDg-33" target="A_heObpt1fbt8PdxzLDg-36" edge="1">
          <mxGeometry x="0.0184" width="160" relative="1" as="geometry">
            <mxPoint x="692" y="190" as="sourcePoint" />
            <mxPoint x="170" y="40" as="targetPoint" />
            <mxPoint as="offset" />
          </mxGeometry>
        </mxCell>
        <mxCell id="A_heObpt1fbt8PdxzLDg-36" value="Ввод персональных данных" style="ellipse;whiteSpace=wrap;html=1;" parent="1" vertex="1">
          <mxGeometry x="420" y="90" width="100" height="60" as="geometry" />
        </mxCell>
        <mxCell id="A_heObpt1fbt8PdxzLDg-37" value="Просмотр отзывов" style="ellipse;whiteSpace=wrap;html=1;" parent="1" vertex="1">
          <mxGeometry x="240" y="120" width="90" height="50" as="geometry" />
        </mxCell>
        <mxCell id="A_heObpt1fbt8PdxzLDg-38" value="" style="endArrow=none;html=1;rounded=0;" parent="1" source="A_heObpt1fbt8PdxzLDg-37" target="A_heObpt1fbt8PdxzLDg-3" edge="1">
          <mxGeometry width="50" height="50" relative="1" as="geometry">
            <mxPoint x="360" y="220" as="sourcePoint" />
            <mxPoint x="410" y="170" as="targetPoint" />
          </mxGeometry>
        </mxCell>
        <mxCell id="A_heObpt1fbt8PdxzLDg-39" value="" style="endArrow=none;html=1;rounded=0;" parent="1" source="A_heObpt1fbt8PdxzLDg-1" target="A_heObpt1fbt8PdxzLDg-37" edge="1">
          <mxGeometry width="50" height="50" relative="1" as="geometry">
            <mxPoint x="360" y="220" as="sourcePoint" />
            <mxPoint x="410" y="170" as="targetPoint" />
          </mxGeometry>
        </mxCell>
        <mxCell id="A_heObpt1fbt8PdxzLDg-45" value="Войти в аккаунт" style="ellipse;whiteSpace=wrap;html=1;" parent="1" vertex="1">
          <mxGeometry x="10" y="280" width="110" height="40" as="geometry" />
        </mxCell>
        <mxCell id="A_heObpt1fbt8PdxzLDg-46" value="" style="endArrow=none;html=1;rounded=0;" parent="1" source="A_heObpt1fbt8PdxzLDg-45" target="A_heObpt1fbt8PdxzLDg-1" edge="1">
          <mxGeometry width="50" height="50" relative="1" as="geometry">
            <mxPoint x="360" y="370" as="sourcePoint" />
            <mxPoint x="410" y="320" as="targetPoint" />
          </mxGeometry>
        </mxCell>
        <mxCell id="A_heObpt1fbt8PdxzLDg-50" value="Добавление в корзину" style="ellipse;whiteSpace=wrap;html=1;" parent="1" vertex="1">
          <mxGeometry x="-155" y="130" width="90" height="50" as="geometry" />
        </mxCell>
        <mxCell id="A_heObpt1fbt8PdxzLDg-51" value="&amp;lt;&amp;lt;extended&amp;gt;&amp;gt;" style="endArrow=open;endSize=12;dashed=1;html=1;rounded=0;" parent="1" source="A_heObpt1fbt8PdxzLDg-50" target="A_heObpt1fbt8PdxzLDg-45" edge="1">
          <mxGeometry x="0.0184" width="160" relative="1" as="geometry">
            <mxPoint x="862" y="188" as="sourcePoint" />
            <mxPoint x="828" y="251" as="targetPoint" />
            <mxPoint as="offset" />
          </mxGeometry>
        </mxCell>
        <mxCell id="A_heObpt1fbt8PdxzLDg-53" value="Оформить заказ" style="ellipse;whiteSpace=wrap;html=1;" parent="1" vertex="1">
          <mxGeometry x="-150" y="280" width="80" height="40" as="geometry" />
        </mxCell>
        <mxCell id="A_heObpt1fbt8PdxzLDg-54" value="&amp;lt;&amp;lt;extended&amp;gt;&amp;gt;" style="endArrow=open;endSize=12;dashed=1;html=1;rounded=0;" parent="1" source="A_heObpt1fbt8PdxzLDg-53" target="A_heObpt1fbt8PdxzLDg-45" edge="1">
          <mxGeometry x="0.0184" width="160" relative="1" as="geometry">
            <mxPoint x="168" y="239" as="sourcePoint" />
            <mxPoint x="70" y="310" as="targetPoint" />
            <mxPoint as="offset" />
          </mxGeometry>
        </mxCell>
        <mxCell id="A_heObpt1fbt8PdxzLDg-55" value="&amp;lt;&amp;lt;extended&amp;gt;&amp;gt;" style="endArrow=open;endSize=12;dashed=1;html=1;rounded=0;" parent="1" source="A_heObpt1fbt8PdxzLDg-50" target="A_heObpt1fbt8PdxzLDg-53" edge="1">
          <mxGeometry x="0.0184" width="160" relative="1" as="geometry">
            <mxPoint x="178" y="249" as="sourcePoint" />
            <mxPoint x="130" y="311" as="targetPoint" />
            <mxPoint as="offset" />
          </mxGeometry>
        </mxCell>
        <mxCell id="A_heObpt1fbt8PdxzLDg-56" value="Оставить отзыв" style="ellipse;whiteSpace=wrap;html=1;" parent="1" vertex="1">
          <mxGeometry x="15" y="400" width="100" height="60" as="geometry" />
        </mxCell>
        <mxCell id="A_heObpt1fbt8PdxzLDg-57" value="&amp;lt;&amp;lt;extended&amp;gt;&amp;gt;" style="endArrow=open;endSize=12;dashed=1;html=1;rounded=0;" parent="1" source="A_heObpt1fbt8PdxzLDg-56" target="A_heObpt1fbt8PdxzLDg-45" edge="1">
          <mxGeometry x="0.0184" width="160" relative="1" as="geometry">
            <mxPoint x="188" y="259" as="sourcePoint" />
            <mxPoint x="140" y="321" as="targetPoint" />
            <mxPoint as="offset" />
          </mxGeometry>
        </mxCell>
        <mxCell id="A_heObpt1fbt8PdxzLDg-58" value="Отменить заказ" style="ellipse;whiteSpace=wrap;html=1;" parent="1" vertex="1">
          <mxGeometry x="-160" y="380" width="100" height="50" as="geometry" />
        </mxCell>
        <mxCell id="A_heObpt1fbt8PdxzLDg-59" value="&amp;lt;&amp;lt;extended&amp;gt;&amp;gt;" style="endArrow=open;endSize=12;dashed=1;html=1;rounded=0;" parent="1" source="A_heObpt1fbt8PdxzLDg-58" target="A_heObpt1fbt8PdxzLDg-53" edge="1">
          <mxGeometry x="0.0184" width="160" relative="1" as="geometry">
            <mxPoint x="198" y="269" as="sourcePoint" />
            <mxPoint x="150" y="331" as="targetPoint" />
            <mxPoint as="offset" />
          </mxGeometry>
        </mxCell>
        <mxCell id="A_heObpt1fbt8PdxzLDg-60" value="Удаление товара из корзины" style="ellipse;whiteSpace=wrap;html=1;" parent="1" vertex="1">
          <mxGeometry x="-165" y="10" width="110" height="60" as="geometry" />
        </mxCell>
        <mxCell id="A_heObpt1fbt8PdxzLDg-61" value="&amp;lt;&amp;lt;extended&amp;gt;&amp;gt;" style="endArrow=open;endSize=12;dashed=1;html=1;rounded=0;" parent="1" source="A_heObpt1fbt8PdxzLDg-60" target="A_heObpt1fbt8PdxzLDg-50" edge="1">
          <mxGeometry x="0.0184" width="160" relative="1" as="geometry">
            <mxPoint x="208" y="279" as="sourcePoint" />
            <mxPoint x="-210" y="170" as="targetPoint" />
            <mxPoint as="offset" />
          </mxGeometry>
        </mxCell>
        <mxCell id="A_heObpt1fbt8PdxzLDg-62" value="Поиск товара" style="ellipse;whiteSpace=wrap;html=1;" parent="1" vertex="1">
          <mxGeometry x="395" y="390" width="90" height="50" as="geometry" />
        </mxCell>
        <mxCell id="A_heObpt1fbt8PdxzLDg-63" value="&amp;lt;&amp;lt;extended&amp;gt;&amp;gt;" style="endArrow=open;endSize=12;dashed=1;html=1;rounded=0;" parent="1" source="A_heObpt1fbt8PdxzLDg-62" target="A_heObpt1fbt8PdxzLDg-9" edge="1">
          <mxGeometry x="0.0184" width="160" relative="1" as="geometry">
            <mxPoint x="218" y="289" as="sourcePoint" />
            <mxPoint x="170" y="351" as="targetPoint" />
            <mxPoint as="offset" />
          </mxGeometry>
        </mxCell>
        <mxCell id="A_heObpt1fbt8PdxzLDg-66" value="Ввести входные данные" style="ellipse;whiteSpace=wrap;html=1;" parent="1" vertex="1">
          <mxGeometry x="10" y="140" width="110" height="60" as="geometry" />
        </mxCell>
        <mxCell id="A_heObpt1fbt8PdxzLDg-67" value="&amp;lt;&amp;lt;included&amp;gt;&amp;gt;" style="endArrow=open;endSize=12;dashed=1;html=1;rounded=0;" parent="1" source="A_heObpt1fbt8PdxzLDg-45" target="A_heObpt1fbt8PdxzLDg-66" edge="1">
          <mxGeometry x="0.0183" y="-10" width="160" relative="1" as="geometry">
            <mxPoint x="228" y="299" as="sourcePoint" />
            <mxPoint x="180" y="361" as="targetPoint" />
            <mxPoint as="offset" />
          </mxGeometry>
        </mxCell>
        <mxCell id="I0ZaWjQqiF320wdwdCuv-1" value="Фильтрация по категориям и брендам" style="ellipse;whiteSpace=wrap;html=1;" vertex="1" parent="1">
          <mxGeometry x="162.5" y="385" width="125" height="60" as="geometry" />
        </mxCell>
        <mxCell id="I0ZaWjQqiF320wdwdCuv-2" value="&amp;lt;&amp;lt;included&amp;gt;&amp;gt;" style="endArrow=open;endSize=12;dashed=1;html=1;rounded=0;" edge="1" parent="1" source="A_heObpt1fbt8PdxzLDg-62" target="I0ZaWjQqiF320wdwdCuv-1">
          <mxGeometry x="0.0184" width="160" relative="1" as="geometry">
            <mxPoint x="489.99647528555687" y="499.99571143271885" as="sourcePoint" />
            <mxPoint x="361.95" y="488.88" as="targetPoint" />
            <mxPoint as="offset" />
          </mxGeometry>
        </mxCell>
      </root>
    </mxGraphModel>
  </diagram>
</mxfile>
